:SAMPLES-PER-SECOND 30
:FULLY-SPECIFIED
:DEGREES
278
root  42.2771 33.3558 3.79158 150.146 84.7998 148.127
RightUpLeg  -50.9576 -14.0852 -5.74904
RightLeg  55.735 4.49813 6.6394
RightFoot  -9.08516 -0.193256 6.74128
RightToes  -2.21189e-009 0 -3.6325e-017
Spine  52.1983 -5.31081 6.08065
Spine1  6.90481 -1.09488 -6.98114
HEad  -44.4265 -2.19165 -4.01982
LeftShoulder1  2.14872 -7.64948 -12.1679
LeftArm  -36.4449 -58.7202 -28.7164
LeftForeArm  -7.99349 -29.1714 -6.74932
LeftHand  -0.0555944 2.77494 1.86463
RightShoulder  1.03865 3.4827 7.29833
RightArm  -26.1274 56.3916 35.9607
RightForeArm  -33.0215 25.5048 6.93394
RightHand  -0.447711 15.5089 -2.94693
LeftUpLeg  -47.7933 8.68879 -4.98965
LeftLeg  43.3792 -3.83892 -3.48239
LeftFoot  4.00543 -0.714414 5.12416
LeftToes  -4.03379e-008 1.61488e-010 -5.81581e-011
279
root  42.7876 32.8837 3.9828 154.409 82.4792 148.679
RightUpLeg  -54.2799 -12.7207 -7.26466
RightLeg  49.9571 7.30802 8.95767
RightFoot  -8.88961 -0.164793 7.65757
RightToes  -2.21189e-009 0 -3.6325e-017
Spine  52.4567 -5.39881 5.68339
Spine1  6.09584 -2.07066 -5.76908
HEad  -46.746 -3.06291 -3.17287
LeftShoulder1  2.06127 -8.6691 -9.57795
LeftArm  -45.1343 -61.8565 -21.4822
LeftForeArm  -8.65199 -26.4326 -6.12164
LeftHand  -0.0401855 2.98865 1.21098
RightShoulder  0.929298 3.95747 4.56488
RightArm  -33.4123 59.6494 29.0536
RightForeArm  -36.8619 22.2052 5.81851
RightHand  -0.450523 17.0664 -2.78795
LeftUpLeg  -52.8592 7.06545 -6.62291
LeftLeg  46.3489 -4.02798 -4.09629
LeftFoot  2.61706 -0.693773 5.5298
LeftToes  -4.03379e-008 1.61488e-010 -5.81581e-011
280
root  43.3054 32.4613 4.09603 160.962 80.0823 154.267
RightUpLeg  -55.7706 -13.4956 -7.46022
RightLeg  51.1692 7.01991 8.88052
RightFoot  -2.69243 -0.232612 2.44425
RightToes  -2.21189e-009 0 -3.6325e-017
Spine  53.6016 -6.64105 7.07475
Spine1  6.26751 -3.33284 -5.07081
HEad  -48.9768 -3.62117 -2.02992
LeftShoulder1  1.85472 -9.2626 -6.87967
LeftArm  -53.3891 -64.184 -14.6553
LeftForeArm  -9.4118 -24.233 -5.62141
LeftHand  -0.0379443 3.94569 1.30532
RightShoulder  0.748873 4.03065 1.69764
RightArm  -38.8534 61.9846 22.1716
RightForeArm  -41.7601 18.8984 3.4774
RightHand  -0.470408 16.1906 -2.98411
LeftUpLeg  -54.9882 5.102 -6.88806
LeftLeg  49.5667 -4.08964 -4.6975
LeftFoot  0.635829 -0.558617 5.27249
LeftToes  -4.03379e-008 1.61488e-010 -5.81581e-011
281
root  43.757 31.9745 4.20274 168.764 77.6326 162.839
RightUpLeg  -56.3349 -15.31 -7.16472
RightLeg  55.9713 5.52075 8.30746
RightFoot  -4.98361 -0.120161 1.58484
RightToes  -2.21189e-009 0 -3.6325e-017
Spine  56.4863 -8.875 9.32131
Spine1  5.18835 -4.36753 -5.25203
HEad  -49.3697 -4.76633 -1.57376
LeftShoulder1  1.53763 -9.50786 -3.83714
LeftArm  -59.8232 -65.6839 -10.789
LeftForeArm  -10.2773 -21.989 -4.67112
LeftHand  -0.0539751 3.18424 2.02868
RightShoulder  0.561395 3.979 -1.07222
RightArm  -41.1856 63.1411 16.4115
RightForeArm  -48.4054 15.8246 1.28862
RightHand  -0.506985 16.286 -3.1668
LeftUpLeg  -55.9294 3.00236 -5.84766
LeftLeg  53.5812 -3.97388 -5.30239
LeftFoot  -1.58438 -0.410129 4.93386
LeftToes  -4.03379e-008 1.61488e-010 -5.81581e-011
282
root  44.2711 31.4111 4.38975 174.656 76.5004 167.939
RightUpLeg  -58.6535 -15.5581 -6.19362
RightLeg  59.8734 4.37253 7.60201
RightFoot  -5.81868 -0.0557718 0.290768
RightToes  -2.21189e-009 0 -3.6325e-017
Spine  57.8901 -10.0616 10.8371
Spine1  3.65027 -4.71311 -5.67453
HEad  -49.8603 -5.2921 -0.693044
LeftShoulder1  1.32015 -9.8169 -1.66232
LeftArm  -63.6427 -66.2547 -5.56693
LeftForeArm  -13.2296 -20.18 -3.07687
LeftHand  -0.0386076 4.06648 1.55208
RightShoulder  0.447781 4.35009 -3.1231
RightArm  -44.466 63.682 10.5272
RightForeArm  -53.3923 13.2608 -0.0191992
RightHand  -0.611276 16.1613 -3.74753
LeftUpLeg  -58.8518 2.05334 -4.57405
LeftLeg  58.001 -3.61189 -5.69017
LeftFoot  -3.51505 -0.328634 5.10263
LeftToes  -4.03379e-008 1.61488e-010 -5.81581e-011
